<?xml version="1.0" encoding="iso-8859-1"?>
<!-- Generator: Adobe Illustrator 19.0.0, SVG Export Plug-In . SVG Version: 6.00 Build 0)  -->
<svg version="1.1" id="Layer_1" xmlns="http://www.w3.org/2000/svg" xmlns:xlink="http://www.w3.org/1999/xlink" x="0px" y="0px"
	 viewBox="0 0 512 512" style="enable-background:new 0 0 512 512;" xml:space="preserve">
<path d="M355.2,512H156.8c-35.2,0-64-28.8-64-64V64c0-35.2,28.8-64,64-64h198.4c35.2,0,64,28.8,64,64v384
	C419.2,483.2,390.4,512,355.2,512z"/>
<rect x="118.4" y="60.8" style="fill:#FFFFFF;" width="280" height="376.8"/>
<g>
	<circle style="fill:#CCCCCC;" cx="256" cy="30.4" r="12"/>
	<path style="fill:#CCCCCC;" d="M283.2,488h-54.4c-7.2,0-13.6-6.4-13.6-13.6s6.4-13.6,13.6-13.6h54.4c7.2,0,13.6,6.4,13.6,13.6
		C296.8,482.4,290.4,488,283.2,488z"/>
</g>
<g>
	<rect x="151.2" y="350.4" style="fill:#FF583E;" width="209.6" height="8"/>
	<rect x="174.4" y="376.8" style="fill:#FF583E;" width="163.2" height="8"/>
</g>
<polygon points="353.6,293.6 326.4,266.4 341.6,251.2 284.8,241.6 294.4,298.4 311.2,282.4 337.6,309.6 "/>
<path style="fill:#13B7E6;" d="M351.2,221.6H170.4c-16.8,0-29.6-13.6-29.6-29.6v-49.6c0-16.8,13.6-29.6,29.6-29.6h180.8
	c16.8,0,29.6,13.6,29.6,29.6V192C380.8,208.8,367.2,221.6,351.2,221.6z"/>
<g>
	<path style="fill:#FFFFFF;" d="M194.4,135.2c3.2-0.8,10.4-0.8,16.8-0.8c8,0,12.8,0.8,16.8,3.2s6.4,5.6,6.4,11.2
		c0,4.8-3.2,9.6-9.6,12l0,0c6.4,1.6,11.2,6.4,11.2,13.6c0,4.8-2.4,8.8-5.6,12c-4,3.2-11.2,4.8-22.4,4.8c-6.4,0-11.2-0.8-13.6-0.8
		L194.4,135.2L194.4,135.2z M207.2,156.8h4c6.4,0,10.4-2.4,10.4-7.2c0-4-3.2-6.4-8.8-6.4c-2.4,0-4,0-5.6,0V156.8L207.2,156.8z
		 M207.2,181.6c1.6,0,2.4,0,4.8,0c5.6,0,11.2-2.4,11.2-8s-4.8-8-11.2-8h-4v16H207.2z"/>
	<path style="fill:#FFFFFF;" d="M283.2,177.6c0,5.6,0,9.6,0,12.8H272v-5.6l0,0c-1.6,2.4-5.6,6.4-12.8,6.4c-8,0-14.4-4.8-14.4-17.6
		v-24h12.8v21.6c0,5.6,1.6,9.6,6.4,9.6c3.2,0,5.6-2.4,6.4-4.8c0-0.8,0.8-1.6,0.8-2.4v-24H284L283.2,177.6L283.2,177.6z"/>
	<path style="fill:#FFFFFF;" d="M302.4,149.6l6.4,20c0.8,2.4,1.6,5.6,2.4,7.2l0,0c0.8-2.4,1.6-5.6,1.6-7.2l4.8-20h13.6l-9.6,27.2
		c-5.6,16-9.6,22.4-14.4,26.4s-8.8,4.8-12,5.6l-2.4-10.4c1.6,0,3.2-0.8,5.6-2.4c1.6-0.8,4-3.2,5.6-4.8c0.8-0.8,0.8-1.6,0.8-1.6
		c0-0.8,0-0.8-0.8-2.4l-15.2-37.6H302.4z"/>
</g>
<g>
</g>
<g>
</g>
<g>
</g>
<g>
</g>
<g>
</g>
<g>
</g>
<g>
</g>
<g>
</g>
<g>
</g>
<g>
</g>
<g>
</g>
<g>
</g>
<g>
</g>
<g>
</g>
<g>
</g>
</svg>
